{
  "accessors": [
    {
      "bufferView": 2,
      "componentType": 5126,
      "count": 5530,
      "max": [
        27.680259704589844,
        33.3374137878418,
        43.791481018066406
      ],
      "min": [
        -27.680259704589844,
        0.2857050895690918,
        -41.002532958984375
      ],
      "type": "VEC3"
    },
    {
      "bufferView": 2,
      "byteOffset": 66360,
      "componentType": 5126,
      "count": 5530,
      "max": [
        0.9999638795852661,
        0.9999640583992004,
        0.9996852278709412
      ],
      "min": [
        -0.9999638795852661,
        -0.9995979070663452,
        -0.9999970197677612
      ],
      "type": "VEC3"
    },
    {
      "bufferView": 3,
      "componentType": 5126,
      "count": 5530,
      "max": [
        1.0,
        0.9999299049377441,
        0.9997290372848511,
        1.0
      ],
      "min": [
        -1.0,
        -0.9995083212852478,
        -0.9986058473587036,
        1.0
      ],
      "type": "VEC4"
    },
    {
      "bufferView": 1,
      "componentType": 5126,
      "count": 5530,
      "max": [
        0.9918380379676819,
        0.9888792634010315
      ],
      "min": [
        0.0020000000949949026,
        0.0020000000949949026
      ],
      "type": "VEC2"
    },
    {
      "bufferView": 1,
      "byteOffset": 44240,
      "componentType": 5126,
      "count": 5530,
      "max": [
        0.9918380379676819,
        0.9888792634010315
      ],
      "min": [
        0.0020000000949949026,
        0.0020000000949949026
      ],
      "type": "VEC2"
    },
    {
      "bufferView": 0,
      "componentType": 5125,
      "count": 27966,
      "type": "SCALAR"
    },
    {
      "bufferView": 2,
      "byteOffset": 132720,
      "componentType": 5126,
      "count": 3873,
      "max": [
        26.443830490112305,
        35.55711364746094,
        44.76252746582031
      ],
      "min": [
        -27.871082305908203,
        -0.9582080841064453,
        -40.98798751831055
      ],
      "type": "VEC3"
    },
    {
      "bufferView": 2,
      "byteOffset": 179196,
      "componentType": 5126,
      "count": 3873,
      "max": [
        0.9998012185096741,
        0.9974483847618103,
        0.999936044216156
      ],
      "min": [
        -0.9975336194038391,
        -0.9996474385261536,
        -0.9989805817604065
      ],
      "type": "VEC3"
    },
    {
      "bufferView": 3,
      "byteOffset": 88480,
      "componentType": 5126,
      "count": 3873,
      "max": [
        0.9994168877601624,
        0.9994096159934998,
        0.9999533295631409,
        1.0
      ],
      "min": [
        -0.9997826814651489,
        -0.9999790191650391,
        -0.9999669790267944,
        -1.0
      ],
      "type": "VEC4"
    },
    {
      "bufferView": 1,
      "byteOffset": 88480,
      "componentType": 5126,
      "count": 3873,
      "max": [
        0.9101532697677612,
        0.9916946291923523
      ],
      "min": [
        0.5000000596046448,
        0.6941893100738525
      ],
      "type": "VEC2"
    },
    {
      "bufferView": 0,
      "byteOffset": 111864,
      "componentType": 5125,
      "count": 6507,
      "type": "SCALAR"
    },
    {
      "bufferView": 2,
      "byteOffset": 225672,
      "componentType": 5126,
      "count": 398,
      "max": [
        18.192686080932617,
        34.34940719604492,
        9.578756332397461
      ],
      "min": [
        -18.192686080932617,
        22.50800895690918,
        -34.109107971191406
      ],
      "type": "VEC3"
    },
    {
      "bufferView": 2,
      "byteOffset": 230448,
      "componentType": 5126,
      "count": 398,
      "max": [
        0.9600605964660645,
        0.9961479306221008,
        0.7448002696037292
      ],
      "min": [
        -0.9600605964660645,
        -0.24346394836902618,
        0.004827573895454407
      ],
      "type": "VEC3"
    },
    {
      "bufferView": 3,
      "byteOffset": 150448,
      "componentType": 5126,
      "count": 398,
      "max": [
        0.9891195893287659,
        0.9555912613868713,
        0.3632407486438751,
        1.0
      ],
      "min": [
        -0.12564851343631744,
        -0.9556003212928772,
        -0.39081552624702454,
        1.0
      ],
      "type": "VEC4"
    },
    {
      "bufferView": 1,
      "byteOffset": 119464,
      "componentType": 5126,
      "count": 398,
      "max": [
        0.9813012480735779,
        0.4545512795448303
      ],
      "min": [
        0.6566970348358154,
        0.006849606521427631
      ],
      "type": "VEC2"
    },
    {
      "bufferView": 1,
      "byteOffset": 122648,
      "componentType": 5126,
      "count": 398,
      "max": [
        0.9813012480735779,
        0.4545512795448303
      ],
      "min": [
        0.6566970348358154,
        0.006849606521427631
      ],
      "type": "VEC2"
    },
    {
      "bufferView": 0,
      "byteOffset": 137892,
      "componentType": 5125,
      "count": 2088,
      "type": "SCALAR"
    },
    {
      "bufferView": 2,
      "byteOffset": 235224,
      "componentType": 5126,
      "count": 192,
      "max": [
        59.999996185302734,
        60.0,
        0.0
      ],
      "min": [
        -60.0,
        -60.000003814697266,
        -5.0
      ],
      "type": "VEC3"
    },
    {
      "bufferView": 2,
      "byteOffset": 237528,
      "componentType": 5126,
      "count": 192,
      "max": [
        1.0,
        1.0,
        1.0
      ],
      "min": [
        -1.0,
        -1.0,
        0.0
      ],
      "type": "VEC3"
    },
    {
      "bufferView": 3,
      "byteOffset": 156816,
      "componentType": 5126,
      "count": 192,
      "max": [
        0.9138381481170654,
        0.22363096475601196,
        0.9999141693115234,
        1.0
      ],
      "min": [
        -0.09283975511789322,
        -0.7858245968818665,
        -0.999914288520813,
        1.0
      ],
      "type": "VEC4"
    },
    {
      "bufferView": 1,
      "byteOffset": 125832,
      "componentType": 5126,
      "count": 192,
      "max": [
        0.999500036239624,
        0.9994999170303345
      ],
      "min": [
        0.0005000000237487257,
        0.0005000000237487257
      ],
      "type": "VEC2"
    },
    {
      "bufferView": 1,
      "byteOffset": 127368,
      "componentType": 5126,
      "count": 192,
      "max": [
        0.999500036239624,
        0.9994999170303345
      ],
      "min": [
        0.0005000000237487257,
        0.0005000000237487257
      ],
      "type": "VEC2"
    },
    {
      "bufferView": 0,
      "byteOffset": 146244,
      "componentType": 5125,
      "count": 1002,
      "type": "SCALAR"
    }
  ],
  "asset": {
    "extras": {
      "author": "schmoldt.art (https://sketchfab.com/schmoldt.art)",
      "license": "CC-BY-4.0 (http://creativecommons.org/licenses/by/4.0/)",
      "source": "https://sketchfab.com/3d-models/housefly-5fe7cbd25f9a446d8bae005893d010dd",
      "title": "Housefly"
    },
    "generator": "Sketchfab-16.82.0",
    "version": "2.0"
  },
  "bufferViews": [
    {
      "buffer": 0,
      "byteLength": 150252,
      "name": "floatBufferViews",
      "target": 34963
    },
    {
      "buffer": 0,
      "byteLength": 128904,
      "byteOffset": 150252,
      "byteStride": 8,
      "name": "floatBufferViews",
      "target": 34962
    },
    {
      "buffer": 0,
      "byteLength": 239832,
      "byteOffset": 279156,
      "byteStride": 12,
      "name": "floatBufferViews",
      "target": 34962
    },
    {
      "buffer": 0,
      "byteLength": 159888,
      "byteOffset": 518988,
      "byteStride": 16,
      "name": "floatBufferViews",
      "target": 34962
    }
  ],
  "buffers": [
    {
      "byteLength": 678876,
      "uri": "scene.bin"
    }
  ],
  "extensionsUsed": [
    "KHR_materials_specular",
    "KHR_materials_transmission"
  ],
  "images": [
    {
      "uri": "textures/MultiMat_0_baseColor.png"
    },
    {
      "uri": "textures/MultiMat_0_metallicRoughness.png"
    },
    {
      "uri": "textures/MultiMat_0_normal.png"
    },
    {
      "uri": "textures/MultiMat_0h_baseColor.png"
    },
    {
      "uri": "textures/MultiMat_0d_baseColor.png"
    },
    {
      "uri": "textures/MultiMat_0d_transmission.png"
    },
    {
      "uri": "textures/Material_175_baseColor.jpeg"
    },
    {
      "uri": "textures/Material_175_metallicRoughness.png"
    },
    {
      "uri": "textures/Material_175_normal.png"
    }
  ],
  "materials": [
    {
      "extensions": {
        "KHR_materials_specular": {
          "specularColorFactor": [
            1.0,
            1.0,
            1.0
          ],
          "specularFactor": 1.0
        }
      },
      "name": "MultiMat_0",
      "normalTexture": {
        "index": 2
      },
      "pbrMetallicRoughness": {
        "baseColorTexture": {
          "index": 0
        },
        "metallicFactor": 0.25,
        "metallicRoughnessTexture": {
          "index": 1
        }
      }
    },
    {
      "alphaMode": "BLEND",
      "doubleSided": true,
      "extensions": {
        "KHR_materials_specular": {
          "specularColorFactor": [
            1.0,
            1.0,
            1.0
          ],
          "specularFactor": 0.25
        }
      },
      "name": "MultiMat_0h",
      "normalTexture": {
        "index": 2
      },
      "pbrMetallicRoughness": {
        "baseColorFactor": [
          0.026383080430379433,
          0.026383080430379433,
          0.026383080430379433,
          1.0
        ],
        "baseColorTexture": {
          "index": 3
        },
        "metallicFactor": 0.4,
        "roughnessFactor": 0.5
      }
    },
    {
      "alphaMode": "BLEND",
      "doubleSided": true,
      "extensions": {
        "KHR_materials_specular": {
          "specularColorFactor": [
            1.0,
            1.0,
            1.0
          ],
          "specularFactor": 1.0
        },
        "KHR_materials_transmission": {
          "transmissionFactor": 1.0,
          "transmissionTexture": {
            "index": 5
          }
        }
      },
      "name": "MultiMat_0d",
      "normalTexture": {
        "index": 2
      },
      "pbrMetallicRoughness": {
        "baseColorTexture": {
          "index": 4
        },
        "metallicFactor": 0.5,
        "metallicRoughnessTexture": {
          "index": 1
        },
        "roughnessFactor": 0.25
      }
    },
    {
      "doubleSided": true,
      "extensions": {
        "KHR_materials_specular": {
          "specularColorFactor": [
            1.0,
            1.0,
            1.0
          ],
          "specularFactor": 1.0
        }
      },
      "name": "Material_175",
      "normalTexture": {
        "index": 8
      },
      "pbrMetallicRoughness": {
        "baseColorTexture": {
          "index": 6
        },
        "metallicFactor": 0.0,
        "metallicRoughnessTexture": {
          "index": 7
        },
        "roughnessFactor": 0.8
      }
    }
  ],
  "meshes": [
    {
      "name": "Object008_MultiMat_0_0",
      "primitives": [
        {
          "attributes": {
            "NORMAL": 1,
            "POSITION": 0,
            "TANGENT": 2,
            "TEXCOORD_0": 3,
            "TEXCOORD_1": 4
          },
          "indices": 5,
          "material": 0,
          "mode": 4
        }
      ]
    },
    {
      "name": "Object008_MultiMat_0h_0",
      "primitives": [
        {
          "attributes": {
            "NORMAL": 7,
            "POSITION": 6,
            "TANGENT": 8,
            "TEXCOORD_0": 9
          },
          "indices": 10,
          "material": 1,
          "mode": 4
        }
      ]
    },
    {
      "name": "Object008_MultiMat_0d_0",
      "primitives": [
        {
          "attributes": {
            "NORMAL": 12,
            "POSITION": 11,
            "TANGENT": 13,
            "TEXCOORD_0": 14,
            "TEXCOORD_1": 15
          },
          "indices": 16,
          "material": 2,
          "mode": 4
        }
      ]
    },
    {
      "name": "Cylinder001_Material #175_0",
      "primitives": [
        {
          "attributes": {
            "NORMAL": 18,
            "POSITION": 17,
            "TANGENT": 19,
            "TEXCOORD_0": 20,
            "TEXCOORD_1": 21
          },
          "indices": 22,
          "material": 3,
          "mode": 4
        }
      ]
    }
  ],
  "nodes": [
    {
      "children": [
        1
      ],
      "matrix": [
        1.0,
        0.0,
        0.0,
        0.0,
        0.0,
        2.220446049250313e-16,
        -1.0,
        0.0,
        0.0,
        1.0,
        2.220446049250313e-16,
        0.0,
        0.0,
        0.0,
        0.0,
        1.0
      ],
      "name": "Sketchfab_model"
    },
    {
      "children": [
        2
      ],
      "matrix": [
        0.009999999776482582,
        0.0,
        0.0,
        0.0,
        0.0,
        0.0,
        0.009999999776482582,
        0.0,
        0.0,
        -0.009999999776482582,
        0.0,
        0.0,
        0.0,
        0.0,
        0.0,
        1.0
      ],
      "name": "Fly.fbx"
    },
    {
      "children": [
        3,
        7
      ],
      "name": "RootNode"
    },
    {
      "children": [
        4,
        5,
        6
      ],
      "matrix": [
        1.0,
        0.0,
        0.0,
        0.0,
        0.0,
        0.9999999999999867,
        1.6292068494294582e-07,
        0.0,
        0.0,
        -1.6292068494294582e-07,
        0.9999999999999867,
        0.0,
        0.0,
        0.0,
        0.0,
        1.0
      ],
      "name": "Object008"
    },
    {
      "mesh": 0,
      "name": "Object008_MultiMat_0_0"
    },
    {
      "mesh": 1,
      "name": "Object008_MultiMat_0h_0"
    },
    {
      "mesh": 2,
      "name": "Object008_MultiMat_0d_0"
    },
    {
      "children": [
        8
      ],
      "matrix": [
        1.0,
        0.0,
        0.0,
        0.0,
        0.0,
        2.220446049250313e-16,
        -1.0,
        0.0,
        0.0,
        1.0,
        2.220446049250313e-16,
        0.0,
        0.0,
        0.0,
        0.0,
        1.0
      ],
      "name": "Cylinder001"
    },
    {
      "mesh": 3,
      "name": "Cylinder001_Material #175_0"
    }
  ],
  "samplers": [
    {
      "magFilter": 9729,
      "minFilter": 9987,
      "wrapS": 10497,
      "wrapT": 10497
    }
  ],
  "scene": 0,
  "scenes": [
    {
      "name": "Sketchfab_Scene",
      "nodes": [
        0
      ]
    }
  ],
  "textures": [
    {
      "sampler": 0,
      "source": 0
    },
    {
      "sampler": 0,
      "source": 1
    },
    {
      "sampler": 0,
      "source": 2
    },
    {
      "sampler": 0,
      "source": 3
    },
    {
      "sampler": 0,
      "source": 4
    },
    {
      "sampler": 0,
      "source": 5
    },
    {
      "sampler": 0,
      "source": 6
    },
    {
      "sampler": 0,
      "source": 7
    },
    {
      "sampler": 0,
      "source": 8
    }
  ]
}
