{
  "accessors": [
    {
      "bufferView": 1,
      "componentType": 5126,
      "count": 32152,
      "max": [
        -16.811962127685547,
        15.543527603149414,
        11.548271179199219
      ],
      "min": [
        -19.613361358642578,
        -7.0467023849487305,
        -74.0852279663086
      ],
      "type": "VEC3"
    },
    {
      "bufferView": 1,
      "byteOffset": 385824,
      "componentType": 5126,
      "count": 32152,
      "max": [
        1.0,
        1.0,
        1.0
      ],
      "min": [
        -1.0,
        -1.0,
        -1.0
      ],
      "type": "VEC3"
    },
    {
      "bufferView": 2,
      "componentType": 5126,
      "count": 32152,
      "max": [
        0.8823529481887817,
        0.03529411926865578,
        0.03529411926865578,
        1.0
      ],
      "min": [
        0.8823529481887817,
        0.03529411926865578,
        0.03529411926865578,
        1.0
      ],
      "type": "VEC4"
    },
    {
      "bufferView": 0,
      "componentType": 5125,
      "count": 181656,
      "type": "SCALAR"
    }
  ],
  "asset": {
    "extras": {
      "author": "reconpeanut (https://sketchfab.com/reconpeanut)",
      "license": "CC-BY-4.0 (http://creativecommons.org/licenses/by/4.0/)",
      "source": "https://sketchfab.com/3d-models/fly-swatter-1cbb42b179424bcc8d051e7363e3829d",
      "title": "Fly Swatter"
    },
    "generator": "Sketchfab-13.68.0",
    "version": "2.0"
  },
  "bufferViews": [
    {
      "buffer": 0,
      "byteLength": 726624,
      "name": "floatBufferViews",
      "target": 34963
    },
    {
      "buffer": 0,
      "byteLength": 771648,
      "byteOffset": 726624,
      "byteStride": 12,
      "name": "floatBufferViews",
      "target": 34962
    },
    {
      "buffer": 0,
      "byteLength": 514432,
      "byteOffset": 1498272,
      "byteStride": 16,
      "name": "floatBufferViews",
      "target": 34962
    }
  ],
  "buffers": [
    {
      "byteLength": 2012704,
      "uri": "scene.bin"
    }
  ],
  "materials": [
    {
      "doubleSided": true,
      "name": "material_0",
      "pbrMetallicRoughness": {
        "metallicFactor": 0.0,
        "roughnessFactor": 0.6
      }
    }
  ],
  "meshes": [
    {
      "name": "Object_0",
      "primitives": [
        {
          "attributes": {
            "COLOR_0": 2,
            "NORMAL": 1,
            "POSITION": 0
          },
          "indices": 3,
          "material": 0,
          "mode": 4
        }
      ]
    }
  ],
  "nodes": [
    {
      "children": [
        1
      ],
      "matrix": [
        2.220446049250313e-16,
        3.828568672208042e-16,
        -1.0,
        0.0,
        -1.0,
        1.6081226229577296e-16,
        -2.2204460492503128e-16,
        0.0,
        1.6081226229577292e-16,
        1.0,
        3.828568672208042e-16,
        0.0,
        0.0,
        0.0,
        0.0,
        1.0
      ],
      "name": "Sketchfab_model"
    },
    {
      "children": [
        2
      ],
      "name": "Fly swatter.obj.cleaner.materialmerger.gles"
    },
    {
      "mesh": 0,
      "name": "Object_2"
    }
  ],
  "scene": 0,
  "scenes": [
    {
      "name": "Sketchfab_Scene",
      "nodes": [
        0
      ]
    }
  ]
}
